HIERARCHY
ROOT Hips
{
	OFFSET 0.000000 35.082581 0.000000
	CHANNELS 6 Xposition Yposition Zposition Xrotation Yrotation Zrotation 
	JOINT Spine
	{
		OFFSET 0.000000 6.876099 0.125700
		CHANNELS 3 Xrotation Yrotation Zrotation
		JOINT Spine1
		{
			OFFSET 0.000000 5.730043 0.104720
			CHANNELS 3 Xrotation Yrotation Zrotation
			JOINT Spine1_split
			{
				OFFSET 0.000000 5.730043 0.104720
				CHANNELS 3 Xrotation Yrotation Zrotation
				JOINT Spine2
				{
					OFFSET 0.000000 5.730043 0.104720
					CHANNELS 3 Xrotation Yrotation Zrotation
					JOINT Neck
					{
						OFFSET 0.000000 10.314075 0.188496
						CHANNELS 3 Xrotation Yrotation Zrotation
						JOINT Head
						{
							OFFSET 0.000000 7.643700 -2.377400
							CHANNELS 3 Xrotation Yrotation Zrotation
							JOINT HeadTop_End
							{
								OFFSET 0.000000 43.788605 -13.619600
								CHANNELS 3 Xrotation Yrotation Zrotation
								End Site
								{
									OFFSET 0.000000 0.000000 0.000000
								}
							}
						}
					}
					JOINT LeftShoulder
					{
						OFFSET 2.196100 4.412489 0.087492
						CHANNELS 3 Xrotation Yrotation Zrotation
						JOINT LeftShoulder_split
						{
							OFFSET 2.196100 4.412489 0.087492
							CHANNELS 3 Xrotation Yrotation Zrotation
							JOINT LeftArm
							{
								OFFSET 8.771219 -2.981674 -0.026999
								CHANNELS 3 Xrotation Yrotation Zrotation
								JOINT LeftForeArm
								{
									OFFSET 8.512804 0.000000 -0.000000
									CHANNELS 3 Xrotation Yrotation Zrotation
									JOINT LeftHand
									{
										OFFSET 18.484802 0.000000 -0.000000
										CHANNELS 3 Xrotation Yrotation Zrotation
										JOINT LeftHandThumb1
										{
											OFFSET 2.499420 -1.158070 2.653252
											CHANNELS 3 Xrotation Yrotation Zrotation
											JOINT LeftHandThumb2
											{
												OFFSET 2.370079 -1.368366 1.368366
												CHANNELS 3 Xrotation Yrotation Zrotation
												JOINT LeftHandThumb3
												{
													OFFSET 2.676727 -1.545410 1.545409
													CHANNELS 3 Xrotation Yrotation Zrotation
													JOINT LeftHandThumb4
													{
														OFFSET 1.692226 -0.977005 0.977007
														CHANNELS 3 Xrotation Yrotation Zrotation
														End Site
														{
															OFFSET 0.000000 0.000000 0.000000
														}
													}
												}
											}
										}
										JOINT LeftHandIndex1
										{
											OFFSET 7.924831 -0.457527 2.345128
											CHANNELS 3 Xrotation Yrotation Zrotation
											JOINT LeftHandIndex2
											{
												OFFSET 3.643303 0.000000 0.000000
												CHANNELS 3 Xrotation Yrotation Zrotation
												JOINT LeftHandIndex3
												{
													OFFSET 3.810799 0.000000 0.000000
													CHANNELS 3 Xrotation Yrotation Zrotation
													JOINT LeftHandIndex4
													{
														OFFSET 2.403702 0.000000 0.000000
														CHANNELS 3 Xrotation Yrotation Zrotation
														End Site
														{
															OFFSET 0.000000 0.000000 0.000000
														}
													}
												}
											}
										}
										JOINT LeftHandMiddle1
										{
											OFFSET 8.563995 0.000000 -0.000000
											CHANNELS 3 Xrotation Yrotation Zrotation
											JOINT LeftHandMiddle2
											{
												OFFSET 3.861618 0.000000 0.000000
												CHANNELS 3 Xrotation Yrotation Zrotation
												JOINT LeftHandMiddle3
												{
													OFFSET 3.701603 0.000000 0.000000
													CHANNELS 3 Xrotation Yrotation Zrotation
													JOINT LeftHandMiddle4
													{
														OFFSET 2.322544 0.000000 0.000000
														CHANNELS 3 Xrotation Yrotation Zrotation
														End Site
														{
															OFFSET 0.000000 0.000000 0.000000
														}
													}
												}
											}
										}
										JOINT LeftHandRing1
										{
											OFFSET 8.426460 -0.424637 -3.286992
											CHANNELS 3 Xrotation Yrotation Zrotation
											JOINT LeftHandRing2
											{
												OFFSET 3.126408 0.000000 0.000000
												CHANNELS 3 Xrotation Yrotation Zrotation
												JOINT LeftHandRing3
												{
													OFFSET 3.085026 0.000000 0.000000
													CHANNELS 3 Xrotation Yrotation Zrotation
													JOINT LeftHandRing4
													{
														OFFSET 1.644005 0.000000 0.000000
														CHANNELS 3 Xrotation Yrotation Zrotation
														End Site
														{
															OFFSET 0.000000 0.000000 0.000000
														}
													}
												}
											}
										}
									}
								}
							}
						}
					}
					JOINT RightShoulder
					{
						OFFSET -2.196100 4.412496 0.070690
						CHANNELS 3 Xrotation Yrotation Zrotation
						JOINT RightShoulder_split
						{
							OFFSET -2.196100 4.412496 0.070690
							CHANNELS 3 Xrotation Yrotation Zrotation
							JOINT RightArm
							{
								OFFSET -8.771282 -2.981682 -0.094208
								CHANNELS 3 Xrotation Yrotation Zrotation
								JOINT RightForeArm
								{
									OFFSET -8.494598 0.000000 0.000000
									CHANNELS 3 Xrotation Yrotation Zrotation
									JOINT RightHand
									{
										OFFSET -18.483803 0.000000 0.000001
										CHANNELS 3 Xrotation Yrotation Zrotation
										JOINT RightHandThumb1
										{
											OFFSET -2.527351 -1.008072 2.575253
											CHANNELS 3 Xrotation Yrotation Zrotation
											JOINT RightHandThumb2
											{
												OFFSET -2.321518 -1.340328 1.340329
												CHANNELS 3 Xrotation Yrotation Zrotation
												JOINT RightHandThumb3
												{
													OFFSET -2.657753 -1.534454 1.534455
													CHANNELS 3 Xrotation Yrotation Zrotation
													JOINT RightHandThumb4
													{
														OFFSET -1.807510 -1.043568 1.043567
														CHANNELS 3 Xrotation Yrotation Zrotation
														End Site
														{
															OFFSET 0.000000 0.000000 0.000000
														}
													}
												}
											}
										}
										JOINT RightHandIndex1
										{
											OFFSET -8.811420 0.015533 2.887987
											CHANNELS 3 Xrotation Yrotation Zrotation
											JOINT RightHandIndex2
											{
												OFFSET -3.537502 0.000000 0.000000
												CHANNELS 3 Xrotation Yrotation Zrotation
												JOINT RightHandIndex3
												{
													OFFSET -3.356201 0.000000 0.000000
													CHANNELS 3 Xrotation Yrotation Zrotation
													JOINT RightHandIndex4
													{
														OFFSET -1.933098 0.000000 0.000000
														CHANNELS 3 Xrotation Yrotation Zrotation
														End Site
														{
															OFFSET 0.000000 0.000000 0.000000
														}
													}
												}
											}
										}
										JOINT RightHandMiddle1
										{
											OFFSET -8.178135 0.000000 0.000000
											CHANNELS 3 Xrotation Yrotation Zrotation
											JOINT RightHandMiddle2
											{
												OFFSET -3.901302 0.000000 0.000000
												CHANNELS 3 Xrotation Yrotation Zrotation
												JOINT RightHandMiddle3
												{
													OFFSET -3.909599 0.000000 0.000000
													CHANNELS 3 Xrotation Yrotation Zrotation
													JOINT RightHandMiddle4
													{
														OFFSET -2.376003 0.000000 0.000000
														CHANNELS 3 Xrotation Yrotation Zrotation
														End Site
														{
															OFFSET 0.000000 0.000000 0.000000
														}
													}
												}
											}
										}
										JOINT RightHandRing1
										{
											OFFSET -7.559013 0.014137 -2.865403
											CHANNELS 3 Xrotation Yrotation Zrotation
											JOINT RightHandRing2
											{
												OFFSET -3.449306 0.000000 0.000000
												CHANNELS 3 Xrotation Yrotation Zrotation
												JOINT RightHandRing3
												{
													OFFSET -3.362106 0.000000 0.000000
													CHANNELS 3 Xrotation Yrotation Zrotation
													JOINT RightHandRing4
													{
														OFFSET -2.076401 0.000000 0.000000
														CHANNELS 3 Xrotation Yrotation Zrotation
														End Site
														{
															OFFSET 0.000000 0.000000 0.000000
														}
													}
												}
											}
										}
									}
								}
							}
						}
					}
				}
			}
		}
	}
	JOINT LeftUpLeg
	{
		OFFSET 10.205400 -3.823500 0.155100
		CHANNELS 3 Xrotation Yrotation Zrotation
		JOINT LeftLeg
		{
			OFFSET 0.708757 -12.982077 0.567790
			CHANNELS 3 Xrotation Yrotation Zrotation
			JOINT LeftFoot
			{
				OFFSET -0.708756 -10.717838 -2.184338
				CHANNELS 3 Xrotation Yrotation Zrotation
				JOINT LeftToeBase
				{
					OFFSET 0.108149 -7.191104 7.560241
					CHANNELS 3 Xrotation Yrotation Zrotation
					JOINT LeftToe_End
					{
						OFFSET 0.070230 0.081724 4.490308
						CHANNELS 3 Xrotation Yrotation Zrotation
						End Site
						{
							OFFSET 0.000000 0.000000 0.000000
						}
					}
				}
			}
		}
	}
	JOINT RightUpLeg
	{
		OFFSET -10.205400 -3.823500 0.005500
		CHANNELS 3 Xrotation Yrotation Zrotation
		JOINT RightLeg
		{
			OFFSET -0.708756 -12.982134 0.610632
			CHANNELS 3 Xrotation Yrotation Zrotation
			JOINT RightFoot
			{
				OFFSET 0.708754 -10.717769 -1.945823
				CHANNELS 3 Xrotation Yrotation Zrotation
				JOINT RightToeBase
				{
					OFFSET -0.108140 -7.191069 7.372968
					CHANNELS 3 Xrotation Yrotation Zrotation
					JOINT RightToe_End
					{
						OFFSET -0.070227 0.081735 4.479403
						CHANNELS 3 Xrotation Yrotation Zrotation
						End Site
						{
							OFFSET 0.000000 0.000000 0.000000
						}
					}
				}
			}
		}
	}
}
MOTION
Frames: 6
Frame Time: 0.016667
0.524410 33.145973 -0.735822 -7.181011 -4.127610 2.910295 5.271348 1.991779 -1.998848 1.478231 0.730365 -0.788770 0.000000 0.000000 0.000000 1.440799 0.721971 -0.741220 2.260305 5.360285 1.627123 3.299471 -10.639881 2.336762 0.000000 -0.000000 0.000000 -0.595451 -16.332012 -20.041797 0.000000 0.000000 0.000000 11.139992 0.583282 -33.762407 -0.002260 -89.545535 -0.002637 -131.220829 -7.501363 10.656147 -12.800133 -17.470142 4.121610 1.000123 0.731311 -1.438302 -7.335824 -0.421707 13.147365 -0.000004 0.000003 0.000001 -3.532558 4.254370 -63.954565 3.402083 5.315511 -65.218915 1.034643 3.326116 -34.549843 0.000000 -0.000000 -0.000001 2.434379 7.296056 -69.364061 3.297861 5.266365 -64.088655 0.787100 2.934913 -30.019562 -0.000000 0.000000 -0.000001 4.717033 8.075528 -77.582288 2.056303 4.456871 -49.517666 1.539977 3.959696 -42.490610 0.000001 0.000000 0.000002 0.754176 18.436596 11.539475 0.000000 0.000000 0.000000 10.691754 23.557104 38.362188 -0.000001 97.963880 -0.000047 -34.546878 -20.180673 22.179156 20.470555 7.475573 18.843592 4.151704 -12.160924 -33.848006 -6.346091 -41.944062 -36.535454 -0.000001 -0.000002 0.000006 -0.887084 1.427984 12.684530 1.917409 -3.767473 53.934326 3.057994 -4.374564 69.896796 0.000001 -0.000000 -0.000000 0.770897 -5.199592 54.618841 5.563875 -4.568270 101.238594 4.771478 -4.655769 91.407882 0.000001 0.000000 0.000001 6.934484 -8.544291 63.908775 2.909311 -4.317403 67.934714 1.862849 -3.727210 53.099448 -0.000000 0.000001 0.000001 -14.073469 10.624297 8.713607 21.060992 6.330938 -0.076448 1.608558 0.963444 -7.431953 -0.000001 0.000002 -0.000004 0.000000 -0.000002 -0.000000 12.535987 -16.030833 -6.558116 24.110621 -7.514701 -3.008955 -27.946148 -8.969205 11.226686 -2.342212 0.000019 0.000005 -0.000000 0.000001 0.000000 
0.573762 33.093979 -0.744285 -7.098629 -4.285829 2.946519 5.270447 1.920460 -2.026969 1.478231 0.635007 -0.779719 0.000000 0.000000 0.000000 1.440799 0.631945 -0.712957 2.269832 5.220007 1.536724 3.181582 -10.468704 2.168119 0.000000 -0.000000 0.000000 -0.595451 -16.332010 -20.041797 0.000000 0.000000 0.000000 11.399578 0.974263 -33.753917 -0.000101 -89.758610 -0.000304 -131.360001 -7.634368 10.579133 -12.800133 -17.470145 4.121614 1.000126 0.731313 -1.438301 -7.335836 -0.421714 13.147365 -0.000001 -0.000000 -0.000004 -3.532557 4.254374 -63.954565 3.402080 5.315512 -65.218922 1.034642 3.326115 -34.549843 -0.000000 -0.000002 0.000002 2.434380 7.296058 -69.364061 3.297858 5.266370 -64.088662 0.787099 2.934914 -30.019562 -0.000001 0.000000 -0.000002 4.717034 8.075532 -77.582281 2.056301 4.456872 -49.517666 1.539982 3.959697 -42.490610 -0.000001 0.000002 -0.000002 0.751056 18.451100 11.540444 0.000000 0.000000 0.000000 10.590252 23.808716 38.571939 -0.000036 97.773113 0.000004 -34.403021 -20.303936 22.406540 20.470557 7.475576 18.843584 4.151698 -12.160923 -33.848010 -6.346087 -41.944069 -36.535461 -0.000001 0.000003 -0.000000 -0.887086 1.427982 12.684528 1.917405 -3.767472 53.934329 3.057997 -4.374562 69.896796 0.000000 -0.000001 -0.000001 0.770895 -5.199592 54.618830 5.563878 -4.568270 101.238594 4.771475 -4.655771 91.407882 -0.000001 0.000000 0.000001 6.934484 -8.544287 63.908775 2.909309 -4.317403 67.934714 1.862851 -3.727209 53.099448 0.000000 0.000001 0.000001 -14.454675 10.569737 8.697907 21.861699 6.158822 -0.240172 1.135405 1.326524 -7.313861 -0.000020 0.000002 0.000004 0.000000 0.000000 -0.000000 11.830298 -15.910304 -6.931072 25.209074 -7.363615 -2.989775 -28.430758 -9.054842 11.329354 -2.342217 0.000016 0.000003 -0.000000 0.000001 0.000000 
0.617417 33.046768 -0.754071 -7.015704 -4.439019 2.986058 5.269704 1.856048 -2.056406 1.478230 0.545823 -0.771255 0.000000 0.000000 0.000000 1.440799 0.547799 -0.686543 2.278950 5.079157 1.446695 3.068804 -10.293894 2.008879 -0.000000 0.000000 -0.000000 -0.595451 -16.332010 -20.041792 0.000000 0.000000 0.000000 11.673886 1.386670 -33.751100 -0.000600 -89.979621 0.007798 -131.507192 -7.772074 10.489974 -12.800134 -17.470142 4.121611 1.000125 0.731311 -1.438300 -7.335836 -0.421711 13.147359 -0.000004 0.000000 0.000001 -3.532557 4.254374 -63.954565 3.402083 5.315512 -65.218922 1.034642 3.326115 -34.549839 -0.000000 -0.000002 0.000001 2.434380 7.296056 -69.364054 3.297860 5.266367 -64.088655 0.787102 2.934913 -30.019562 0.000001 -0.000000 -0.000003 4.717034 8.075532 -77.582281 2.056300 4.456873 -49.517669 1.539976 3.959693 -42.490610 -0.000001 -0.000000 0.000002 0.748028 18.465162 11.541425 0.000000 0.000000 0.000000 10.484202 24.073579 38.792934 -0.000012 97.573788 -0.000012 -34.246825 -20.433747 22.645904 20.470553 7.475577 18.843590 4.151700 -12.160927 -33.848013 -6.346086 -41.944069 -36.535457 -0.000003 0.000002 0.000001 -0.887085 1.427987 12.684527 1.917406 -3.767472 53.934326 3.057995 -4.374564 69.896796 0.000000 -0.000000 -0.000001 0.770894 -5.199591 54.618837 5.563877 -4.568269 101.238587 4.771477 -4.655771 91.407882 -0.000001 0.000000 0.000002 6.934484 -8.544288 63.908769 2.909309 -4.317406 67.934714 1.862851 -3.727211 53.099448 0.000000 -0.000001 -0.000000 -14.804645 10.531617 8.634878 22.556362 5.951885 -0.301024 0.729903 1.722382 -7.248741 -0.000122 -0.000001 -0.000001 0.000000 -0.000001 -0.000000 11.166303 -15.791621 -7.275045 26.216643 -7.222564 -2.976151 -28.869867 -9.129910 11.417201 -2.342216 0.000021 0.000006 -0.000000 0.000001 0.000000 
0.658266 33.002285 -0.764541 -6.932427 -4.589683 3.027467 5.269044 1.795101 -2.086595 1.478230 0.459727 -0.763087 0.000000 0.000000 0.000000 1.440798 0.466592 -0.661054 2.287673 4.938015 1.356871 2.959046 -10.117157 1.854505 -0.000000 0.000000 0.000000 -0.595451 -16.332012 -20.041798 0.000000 0.000000 0.000000 11.962420 1.823222 -33.756168 0.001454 -90.210338 0.000116 -131.660666 -7.915226 10.391317 -12.800133 -17.470142 4.121616 1.000122 0.731312 -1.438304 -7.335832 -0.421715 13.147360 -0.000001 -0.000003 -0.000001 -3.532558 4.254375 -63.954565 3.402081 5.315512 -65.218915 1.034643 3.326116 -34.549836 -0.000001 -0.000001 0.000001 2.434380 7.296058 -69.364054 3.297860 5.266369 -64.088655 0.787103 2.934913 -30.019559 0.000001 0.000001 0.000002 4.717033 8.075530 -77.582281 2.056298 4.456873 -49.517659 1.539980 3.959695 -42.490610 -0.000001 -0.000001 -0.000001 0.744937 18.479507 11.542369 0.000000 0.000000 0.000000 10.372844 24.349286 39.024378 -0.000086 97.366799 0.000008 -34.080800 -20.568819 22.896749 20.470560 7.475574 18.843589 4.151695 -12.160925 -33.848006 -6.346089 -41.944072 -36.535461 -0.000000 -0.000001 0.000003 -0.887087 1.427983 12.684530 1.917407 -3.767473 53.934319 3.057995 -4.374565 69.896796 -0.000002 -0.000002 -0.000001 0.770894 -5.199591 54.618837 5.563879 -4.568271 101.238594 4.771478 -4.655770 91.407875 -0.000003 0.000001 0.000002 6.934483 -8.544287 63.908775 2.909309 -4.317405 67.934714 1.862851 -3.727212 53.099448 0.000000 0.000000 -0.000001 -15.136766 10.505020 8.539274 23.189317 5.719698 -0.288297 0.363981 2.144863 -7.221643 -0.000034 0.000006 -0.000003 0.000000 0.000000 -0.000000 10.529123 -15.673920 -7.602486 27.164620 -7.085337 -2.965870 -29.278163 -9.198475 11.496356 -2.342217 0.000021 0.000003 -0.000000 0.000000 0.000000 
0.698740 32.959194 -0.775104 -6.848995 -4.740443 3.069800 5.268435 1.734263 -2.117481 1.478230 0.373632 -0.754921 0.000000 0.000000 0.000000 1.440799 0.385385 -0.635566 2.296012 4.796857 1.267087 2.850219 -9.940148 1.700443 -0.000000 0.000000 0.000000 -0.595451 -16.332012 -20.041790 0.000000 0.000000 0.000000 12.260826 2.275648 -33.762629 0.000645 -90.455221 0.000268 -131.816285 -8.065870 10.296789 -12.800133 -17.470142 4.121612 1.000126 0.731315 -1.438302 -7.335827 -0.421710 13.147367 -0.000004 -0.000001 -0.000001 -3.532559 4.254374 -63.954572 3.402081 5.315510 -65.218915 1.034644 3.326115 -34.549843 0.000000 0.000000 0.000001 2.434381 7.296058 -69.364061 3.297860 5.266367 -64.088662 0.787098 2.934912 -30.019559 0.000001 -0.000000 -0.000000 4.717033 8.075527 -77.582288 2.056301 4.456873 -49.517669 1.539981 3.959695 -42.490610 -0.000001 0.000001 0.000002 0.745109 18.495008 11.543407 0.000000 0.000000 0.000000 10.252226 24.630844 39.267444 -0.000075 97.153123 -0.000003 -33.910240 -20.707049 23.160471 20.470558 7.475572 18.843589 4.151697 -12.160928 -33.848010 -6.346091 -41.944065 -36.535457 0.000003 0.000003 -0.000003 -0.887087 1.427988 12.684532 1.917406 -3.767471 53.934326 3.057998 -4.374565 69.896796 -0.000000 -0.000001 -0.000002 0.770898 -5.199591 54.618837 5.563880 -4.568269 101.238587 4.771477 -4.655767 91.407875 -0.000001 -0.000000 -0.000004 6.934484 -8.544286 63.908782 2.909313 -4.317405 67.934714 1.862850 -3.727209 53.099448 0.000001 0.000003 -0.000002 -15.460647 10.488181 8.416031 23.792704 5.469822 -0.221918 0.016470 2.589449 -7.217224 -0.000141 0.000002 0.000002 0.000000 0.000000 -0.000000 9.907773 -15.556618 -7.922031 28.075248 -6.947480 -2.954985 -29.666257 -9.261848 11.568420 -2.342217 0.000019 0.000004 -0.000000 -0.000003 -0.000000 
0.741031 32.916435 -0.785373 -6.765583 -4.893925 3.112297 5.267855 1.670161 -2.149198 1.478230 0.284448 -0.746464 0.000000 0.000000 0.000000 1.440798 0.301237 -0.609156 2.303982 4.655963 1.177177 2.740276 -9.764541 1.542150 -0.000000 0.000001 -0.000000 -0.595451 -16.332012 -20.041800 0.000000 0.000000 0.000000 12.568539 2.744955 -33.772014 0.000534 -90.710206 -0.000052 -131.975702 -8.221740 10.198506 -12.800131 -17.470143 4.121612 1.000125 0.731312 -1.438298 -7.335827 -0.421711 13.147365 -0.000005 0.000000 -0.000006 -3.532558 4.254375 -63.954565 3.402082 5.315511 -65.218915 1.034641 3.326115 -34.549843 -0.000000 -0.000000 0.000000 2.434380 7.296058 -69.364054 3.297859 5.266366 -64.088662 0.787102 2.934914 -30.019562 0.000002 0.000002 -0.000003 4.717035 8.075530 -77.582281 2.056299 4.456873 -49.517663 1.539981 3.959695 -42.490610 0.000000 -0.000000 0.000002 0.746535 18.509867 11.541841 0.000000 0.000000 0.000000 10.125557 24.920411 39.519925 -0.000027 96.933669 -0.000031 -33.732617 -20.848246 23.434423 20.470555 7.475571 18.843594 4.151695 -12.160923 -33.848006 -6.346083 -41.944062 -36.535457 0.000003 0.000002 0.000001 -0.887084 1.427985 12.684529 1.917408 -3.767475 53.934326 3.057998 -4.374565 69.896796 -0.000001 -0.000001 0.000001 0.770895 -5.199592 54.618834 5.563876 -4.568269 101.238587 4.771477 -4.655772 91.407882 0.000002 -0.000000 0.000000 6.934484 -8.544287 63.908769 2.909315 -4.317400 67.934714 1.862853 -3.727213 53.099448 0.000001 0.000001 0.000000 -15.782899 10.480383 8.266450 24.389591 5.207976 -0.109084 -0.328028 3.053966 -7.229284 -0.000075 -0.000001 0.000002 0.000000 0.000004 -0.000000 9.294309 -15.438763 -8.243287 28.962451 -6.803236 -2.945069 -30.038687 -9.323201 11.640191 -2.342217 0.000022 0.000004 0.000000 0.000005 0.000000 
